<svg width="803" height="102" viewBox="0 0 803 102" fill="none" xmlns="http://www.w3.org/2000/svg">
<path d="M54.8207 73.7764L72.9764 55.6208L97.8513 80.4957C100.716 83.3606 100.716 88.0055 97.8513 90.8704L90.0703 98.6513C87.2055 101.516 82.5606 101.516 79.6957 98.6513L54.8207 73.7764Z" fill="#FF5722"/>
<path d="M2.14883 21.1044C-0.716048 18.2395 -0.71605 13.5946 2.14883 10.7297L9.92983 2.94871C12.7947 0.0838288 17.4396 0.0838286 20.3045 2.94871L29.4396 12.0838L11.284 30.2395L2.14883 21.1044Z" fill="#FF5722"/>
<path d="M20.3043 98.6514C17.4394 101.516 12.7945 101.516 9.92966 98.6514L2.14866 90.8704C-0.716221 88.0055 -0.716221 83.3606 2.14866 80.4957L27.1612 55.4833L45.3168 73.6389L20.3043 98.6514Z" fill="#FF5722"/>
<path d="M21.1459 39.9484C18.2847 37.0873 18.2847 32.4485 21.1459 29.5873L28.9169 21.8165C31.778 18.9554 36.417 18.9554 39.2781 21.8165L62.9818 45.5197C65.843 48.3808 65.843 53.0196 62.9818 55.8808L55.2109 63.6516C52.3497 66.5127 47.7108 66.5127 44.8496 63.6516L21.1459 39.9484Z" fill="#EEEEEE"/>
<path d="M55.2767 63.6542C52.4155 66.5153 47.7766 66.5153 44.9154 63.6542L37.1445 55.8834C34.2833 53.0223 34.2833 48.3835 37.1445 45.5224L79.7219 2.94589C82.5831 0.0847674 87.222 0.0847672 90.0831 2.94589L97.8541 10.7167C100.715 13.5778 100.715 18.2166 97.8541 21.0777L55.2767 63.6542Z" fill="#EEEEEE"/>
<path d="M442.7 2.8H516.2V23.24H467.06V41.58H503.74V60.62H467.06V100.8H442.7V2.8Z" fill="#EEEEEE"/>
<path d="M566.255 100.8L564.715 92.12C562.195 95.0133 559.582 97.3467 556.875 99.12C554.262 100.893 550.715 101.78 546.235 101.78C542.129 101.78 538.349 101.033 534.895 99.54C531.535 97.9533 528.829 95.6667 526.775 92.68C524.722 89.6933 523.695 86.0533 523.695 81.76C523.695 75.9733 525.749 71.2133 529.855 67.48C533.962 63.7467 540.449 61.3667 549.315 60.34L564.715 58.66V54.6C564.715 53.2933 564.062 51.9867 562.755 50.68C561.449 49.28 559.442 48.58 556.735 48.58C554.309 48.58 552.209 49.2333 550.435 50.54C548.662 51.8467 547.449 53.6667 546.795 56L527.335 49C529.482 42.6533 533.122 37.8933 538.255 34.72C543.389 31.4533 549.829 29.82 557.575 29.82C567.375 29.82 574.842 32.2467 579.975 37.1C585.109 41.9533 587.675 48.6267 587.675 57.12V100.8H566.255ZM564.715 71.54L553.795 72.8C551.649 73.08 550.015 73.78 548.895 74.9C547.775 76.02 547.215 77.3733 547.215 78.96C547.215 80.5467 547.869 81.8533 549.175 82.88C550.575 83.9067 552.489 84.42 554.915 84.42C556.875 84.42 558.555 84 559.955 83.16C561.449 82.2267 562.615 80.92 563.455 79.24C564.295 77.56 564.715 75.46 564.715 72.94V71.54Z" fill="#EEEEEE"/>
<path d="M600.867 0H624.107V55.58H627.047L646.367 30.8H676.187L647.347 65.1L676.467 100.8H646.647L626.907 74.62H624.107V100.8H600.867V0Z" fill="#EEEEEE"/>
<path d="M690.696 30.8V11.2H714.076V30.8H727.376V51.24H714.076V73.08C714.076 75.6933 714.776 77.56 716.176 78.68C717.576 79.8 719.302 80.4067 721.356 80.5C723.409 80.5 725.462 80.2667 727.516 79.8V99.96C722.289 100.893 717.436 101.173 712.956 100.8C708.476 100.427 704.556 99.26 701.196 97.3C697.929 95.2467 695.362 92.26 693.496 88.34C691.629 84.3267 690.696 79.24 690.696 73.08V51.24H680.756V30.8H690.696Z" fill="#EEEEEE"/>
<path d="M769.503 1.82C775.943 1.82 781.636 2.98667 786.583 5.32C791.623 7.56 795.543 10.92 798.343 15.4C801.236 19.7867 802.683 25.2467 802.683 31.78C802.683 37.7533 801.329 42.7933 798.623 46.9C795.916 51.0067 792.229 54.18 787.563 56.42C782.896 58.5667 777.529 59.6867 771.463 59.78L770.763 70.28H749.063L748.363 43.82H757.043C760.216 43.82 763.109 43.6333 765.723 43.26C768.336 42.8867 770.529 42.28 772.303 41.44C774.169 40.5067 775.569 39.2467 776.503 37.66C777.529 36.0733 778.043 34.0667 778.043 31.64C777.949 29.5867 777.529 27.9067 776.783 26.6C776.036 25.2933 774.963 24.3133 773.563 23.66C772.256 22.9133 770.623 22.54 768.663 22.54C765.396 22.54 762.969 23.38 761.383 25.06C759.796 26.74 759.003 29.12 759.003 32.2H735.903C735.716 26.6 736.836 21.5133 739.263 16.94C741.783 12.2733 745.563 8.58666 750.603 5.88C755.643 3.17333 761.943 1.82 769.503 1.82ZM760.123 101.92C755.736 101.92 752.189 100.66 749.483 98.14C746.869 95.5267 745.563 92.4 745.563 88.76C745.563 85.0267 746.869 81.9 749.483 79.38C752.189 76.7667 755.736 75.46 760.123 75.46C764.509 75.46 768.009 76.7667 770.623 79.38C773.329 81.9 774.683 85.0267 774.683 88.76C774.683 92.4 773.329 95.5267 770.623 98.14C768.009 100.66 764.509 101.92 760.123 101.92Z" fill="#EEEEEE"/>
<path d="M163.9 2.8H188.26V69.02C188.26 76.1133 186.86 82.0867 184.06 86.94C181.353 91.7933 177.48 95.48 172.44 98C167.493 100.52 161.753 101.78 155.22 101.78C146.54 101.78 139.26 99.68 133.38 95.48C127.593 91.1867 123.813 84.9333 122.04 76.72L144.3 72.38C144.673 74.34 145.327 76.02 146.26 77.42C147.287 78.7267 148.5 79.7067 149.9 80.36C151.3 81.0133 152.793 81.34 154.38 81.34C156.247 81.34 157.88 80.92 159.28 80.08C160.773 79.24 161.893 77.98 162.64 76.3C163.48 74.62 163.9 72.6133 163.9 70.28V2.8Z" fill="#FF5722"/>
<path d="M242.513 100.8L240.973 92.12C238.453 95.0133 235.84 97.3467 233.133 99.12C230.52 100.893 226.973 101.78 222.493 101.78C218.387 101.78 214.607 101.033 211.153 99.54C207.793 97.9533 205.087 95.6667 203.033 92.68C200.98 89.6933 199.953 86.0533 199.953 81.76C199.953 75.9733 202.007 71.2133 206.113 67.48C210.22 63.7467 216.707 61.3667 225.573 60.34L240.973 58.66V54.6C240.973 53.2933 240.32 51.9867 239.013 50.68C237.707 49.28 235.7 48.58 232.993 48.58C230.567 48.58 228.467 49.2333 226.693 50.54C224.92 51.8467 223.707 53.6667 223.053 56L203.593 49C205.74 42.6533 209.38 37.8933 214.513 34.72C219.647 31.4533 226.087 29.82 233.833 29.82C243.633 29.82 251.1 32.2467 256.233 37.1C261.367 41.9533 263.933 48.6267 263.933 57.12V100.8H242.513ZM240.973 71.54L230.053 72.8C227.907 73.08 226.273 73.78 225.153 74.9C224.033 76.02 223.473 77.3733 223.473 78.96C223.473 80.5467 224.127 81.8533 225.433 82.88C226.833 83.9067 228.747 84.42 231.173 84.42C233.133 84.42 234.813 84 236.213 83.16C237.707 82.2267 238.873 80.92 239.713 79.24C240.553 77.56 240.973 75.46 240.973 72.94V71.54Z" fill="#FF5722"/>
<path d="M277.125 0H300.365V55.58H303.305L322.625 30.8H352.445L323.605 65.1L352.725 100.8H322.905L303.165 74.62H300.365V100.8H277.125V0Z" fill="#FF5722"/>
<path d="M394.114 101.78C387.207 101.78 381.047 100.333 375.634 97.44C370.22 94.5467 365.927 90.3933 362.754 84.98C359.674 79.5667 358.134 73.1733 358.134 65.8C358.134 58.4267 359.72 52.08 362.894 46.76C366.067 41.3467 370.36 37.1933 375.774 34.3C381.28 31.3133 387.487 29.82 394.394 29.82C401.3 29.82 407.507 31.3133 413.014 34.3C418.52 37.1933 422.86 41.3467 426.034 46.76C429.207 52.08 430.794 58.4267 430.794 65.8C430.794 73.1733 429.16 79.5667 425.894 84.98C422.72 90.3933 418.334 94.5467 412.734 97.44C407.227 100.333 401.02 101.78 394.114 101.78ZM394.114 80.92C396.167 80.92 398.08 80.36 399.854 79.24C401.72 78.12 403.214 76.44 404.334 74.2C405.454 71.96 406.014 69.16 406.014 65.8C406.014 62.44 405.454 59.64 404.334 57.4C403.214 55.16 401.767 53.48 399.994 52.36C398.22 51.24 396.354 50.68 394.394 50.68C392.247 50.68 390.287 51.24 388.514 52.36C386.834 53.48 385.48 55.16 384.454 57.4C383.427 59.64 382.914 62.44 382.914 65.8C382.914 69.16 383.38 71.96 384.314 74.2C385.34 76.44 386.694 78.12 388.374 79.24C390.147 80.36 392.06 80.92 394.114 80.92Z" fill="#FF5722"/>
</svg>
