<svg width="524" height="511" viewBox="0 0 524 511" fill="none" xmlns="http://www.w3.org/2000/svg">
<path d="M295.757 294.66C297.891 302.273 304.107 316.051 309.587 325.271C315.066 334.518 326.051 348.005 334.033 355.25C341.989 362.521 355.345 371.846 363.67 376.009C371.994 380.171 386.826 385.466 396.6 387.811C408.876 390.708 420.915 391.605 435.456 390.63C447.469 389.84 462.485 386.889 470.361 383.78C480.293 379.855 484.218 379.223 484.244 381.594C484.27 383.411 478.949 392.605 472.442 402.01C465.909 411.414 452.554 427.247 442.754 437.179C432.954 447.084 414.25 462.258 401.21 470.846C388.17 479.46 368.306 489.998 357.084 494.292C345.862 498.612 328.659 504.144 318.886 506.62C305.714 509.966 290.514 511.099 260.271 510.993C227.658 510.888 215.461 509.781 199.682 505.487C188.802 502.51 171.02 496.32 160.166 491.71C149.286 487.1 130.925 476.984 119.334 469.239C107.743 461.494 90.2236 447.058 80.4238 437.152C70.624 427.247 57.2685 411.414 50.7354 402.01C44.2293 392.606 38.9339 383.703 39.0117 382.253C39.0644 380.751 45.5452 381.699 54.2119 384.491C62.4838 387.152 77.5794 389.945 87.7217 390.709C97.8639 391.447 113.274 390.735 121.968 389.102C130.661 387.468 146.652 381.884 157.532 376.694C171.152 370.161 182.269 362.205 193.359 351.035C202.211 342.131 213.038 327.722 217.438 319.028C221.863 310.335 226.815 298.19 228.448 292.025L231.452 280.83H291.884L295.757 294.66ZM96.2832 157.146C103.896 157.067 116.936 159.122 125.261 161.704C133.585 164.286 146.863 171.109 154.766 176.852C163.406 183.148 173.101 193.606 179.16 203.116C184.903 212.152 190.461 225.139 192.121 233.411C193.728 241.393 194.439 254.408 193.675 262.39C192.911 270.372 189.565 283.991 186.22 292.685C182.136 303.301 175.761 312.89 166.857 321.82C159.56 329.17 146.468 338.654 137.774 342.896C123.786 349.745 119.255 350.641 98.2588 350.535C79.4232 350.482 71.309 349.139 58.7432 344.055C48.5483 339.945 38.1954 332.964 29.6074 324.402C22.2576 317.105 13.0375 304.618 9.1123 296.636C4.05442 286.415 1.52543 276.325 0.47168 262.39C-0.661093 247.268 0.155724 238.917 3.92285 226.825C6.63633 218.132 13.5648 204.618 19.3076 196.768C25.0505 188.944 35.1133 178.906 41.6201 174.507C48.127 170.107 59.9818 164.418 67.9639 161.889C75.946 159.36 88.67 157.226 96.2832 157.146ZM425.577 157.146C433.19 157.067 446.231 159.122 454.556 161.704C462.88 164.286 476.158 171.109 484.061 176.852C492.701 183.148 502.395 193.606 508.454 203.116C514.197 212.152 519.755 225.139 521.415 233.411C523.022 241.367 523.734 254.408 522.97 262.39C522.206 270.345 518.86 283.991 515.515 292.685C511.431 303.301 505.055 312.89 496.151 321.82C488.854 329.17 475.762 338.654 467.068 342.896C453.08 349.745 448.548 350.641 427.553 350.535C408.718 350.482 400.604 349.139 388.038 344.055C377.843 339.945 367.49 332.964 358.902 324.402C351.552 317.105 342.331 304.591 338.406 296.636C333.348 286.415 330.819 276.325 329.766 262.39C328.633 247.268 329.45 238.917 333.217 226.825C335.93 218.132 342.859 204.618 348.602 196.768C354.344 188.944 364.381 178.906 370.914 174.507C377.447 170.108 389.302 164.418 397.258 161.889C405.213 159.36 417.964 157.226 425.577 157.146ZM73.0225 183.358C70.7306 183.358 67.8583 184.149 66.6465 185.124C65.4349 186.073 64.6448 189.339 64.8555 192.368C65.0926 195.635 83.138 215.761 109.429 242.131C140.303 273.085 155.082 286.151 158.56 285.598C161.299 285.15 164.856 282.7 166.463 280.171C168.965 276.246 162.825 269 123.285 229.46C97.918 204.093 75.3168 183.335 73.0225 183.358ZM397.048 183.358C394.756 183.358 391.885 184.149 390.673 185.124C389.461 186.072 388.67 189.339 388.881 192.368C389.118 195.635 407.163 215.761 433.454 242.131C464.328 273.084 479.107 286.151 482.585 285.598C485.325 285.15 488.881 282.7 490.488 280.171C492.99 276.246 486.852 269 447.312 229.46C421.943 204.092 399.341 183.333 397.048 183.358ZM108.586 180.672C105.557 180.698 102.105 181.515 100.894 182.489C99.6817 183.438 98.8918 186.125 99.1289 188.417C99.3673 190.71 112.881 205.91 129.187 222.189C145.519 238.496 160.693 251.825 162.933 251.825C165.172 251.852 168.464 250.376 170.229 248.559C171.994 246.741 173.364 244.081 173.285 242.632C173.232 241.183 159.877 226.641 143.623 210.309C124.63 191.236 112.09 180.646 108.586 180.672ZM436.562 180.698C434.271 180.725 431.399 181.515 430.188 182.489C428.976 183.438 428.186 186.704 428.423 189.733C428.66 192.816 441.174 207.595 457.164 223.69C480.135 246.793 486.747 252.036 492.068 251.352C496.204 250.851 498.945 248.585 499.498 245.266C500.156 241.472 492.094 231.751 470.546 210.335C454.16 194.028 438.854 180.698 436.562 180.698ZM227.342 0.666016C231.688 -0.0452601 250.657 -0.202699 269.492 0.271484C293.28 0.877396 310.167 2.82669 324.813 6.64648C336.405 9.67602 357.136 17.6056 370.914 24.2441C384.692 30.9091 401.263 40.0763 407.796 44.6074C414.329 49.1387 428.423 61.1773 439.118 71.3457C449.84 81.5142 464.355 98.137 471.389 108.279C478.449 118.422 483.902 127.01 483.533 127.353C483.162 127.694 473.39 125.587 461.8 122.689C450.209 119.818 434.192 117.474 426.236 117.5C418.281 117.553 404.029 119.397 394.624 121.636C385.219 123.875 370.441 129.487 361.826 134.123C353.212 138.733 340.171 148.006 332.848 154.724C325.524 161.415 315.066 174.455 309.587 183.701C304.107 192.921 297.89 206.699 291.884 228.143H231.294L227.421 214.312C225.287 206.699 219.07 192.921 213.591 183.701C208.111 174.455 197.653 161.415 190.329 154.724C183.006 148.006 169.966 138.733 161.352 134.123C152.737 129.487 137.958 123.875 128.554 121.636C119.149 119.397 104.923 117.553 96.9414 117.5C88.9593 117.474 72.969 119.818 61.3779 122.689C49.7894 125.587 40.0439 127.694 39.7236 127.353C39.4075 127.01 43.2535 120.503 48.2852 112.89C53.3168 105.276 66.0144 90.0232 76.5254 78.959C87.0365 67.9211 102.737 53.7746 111.431 47.5312C120.124 41.3142 138.511 30.8818 152.263 24.3486C166.014 17.8418 186.773 10.1234 198.364 7.22559C209.955 4.32788 222.995 1.37739 227.342 0.666016Z" fill="#2D4059"/>
</svg>
